{"glyphs":{":":{"x_min":0,"x_max":168,"ha":168,"o":""},"$":{"x_min":0,"x_max":388,"ha":388,"o":"m 200 -5 q 196 -6 196 -10 l 186 -87 q 184 -97 175 -97 l 169 -97 q 165 -97 162 -94 q 160 -91 161 -87 l 170 -12 q 170 -8 167 -8 q 111 -6 78 32 q 46 71 46 135 q 46 145 48 165 l 51 184 q 51 188 54 191 q 57 194 62 194 l 70 194 q 75 194 78 191 q 80 188 79 184 l 77 166 q 75 146 75 138 q 75 83 102 51 q 129 19 175 19 q 226 19 264 58 q 303 97 311 160 q 312 168 312 182 q 312 216 299 242 q 286 268 266 288 q 247 307 205 343 q 165 378 143 401 q 121 424 107 453 q 93 482 93 519 q 93 577 114 620 q 135 662 171 684 q 207 707 250 708 q 254 708 254 712 l 264 791 q 266 801 275 801 l 281 801 q 291 801 289 791 l 279 710 q 279 707 282 705 q 329 696 356 659 q 382 622 382 565 q 382 556 380 534 l 377 509 q 375 499 366 499 l 356 499 q 346 499 348 509 l 351 533 q 353 553 353 561 q 353 616 326 648 q 298 681 251 681 q 202 681 166 646 q 131 611 123 547 q 122 539 122 524 q 122 481 144 450 q 167 419 224 371 q 271 331 294 307 q 317 283 330 256 q 343 230 343 195 q 343 187 341 167 q 332 97 294 50 q 255 4 200 -5 z"},"?":{"x_min":0,"x_max":320,"ha":320,"o":"m 136 197 l 145 271 q 150 310 167 336 q 184 361 218 394 q 255 431 276 462 q 296 494 303 546 q 305 566 305 575 q 305 624 283 652 q 261 681 224 681 q 180 681 148 644 q 117 607 110 547 l 105 509 q 103 499 94 499 l 85 499 q 80 499 78 502 q 75 505 76 509 l 81 547 q 90 620 130 664 q 171 709 228 709 q 277 709 306 674 q 334 638 334 577 q 334 566 332 544 q 324 481 300 444 q 277 407 237 368 q 207 338 193 318 q 179 299 176 270 l 167 197 q 165 187 156 187 l 144 187 q 134 187 136 197 z m 92 41 q 92 62 106 76 q 119 90 139 90 q 155 90 165 80 q 175 69 175 53 q 175 33 162 19 q 148 5 129 5 q 112 5 102 15 q 92 25 92 41 z"},"<":{"x_min":0,"x_max":430,"ha":430,"o":"m 372 69 l 54 249 q 47 252 49 261 l 50 276 q 52 285 59 288 l 421 468 q 423 469 426 469 q 429 469 431 467 q 433 465 432 461 l 431 450 q 429 441 422 438 l 82 271 q 80 270 80 268 q 79 266 81 265 l 381 99 q 388 96 386 87 l 385 76 q 384 71 380 69 q 377 67 372 69 z"},"'":{"x_min":0,"x_max":86,"ha":86,"o":"m 74 515 l 91 687 q 93 697 102 697 l 115 697 q 125 697 123 687 l 98 515 q 97 505 87 505 l 82 505 q 73 505 74 515 z"},"=":{"x_min":0,"x_max":430,"ha":430,"o":""},"a":{"x_min":0,"x_max":397,"ha":397,"o":"m 348 501 l 357 501 q 362 501 364 498 q 367 495 366 491 l 307 10 q 305 0 296 0 l 286 0 q 276 0 278 10 l 282 49 q 283 52 282 52 q 280 53 278 51 q 258 23 230 8 q 202 -8 169 -8 q 116 -8 86 25 q 55 58 55 112 q 55 119 57 137 l 84 364 q 92 428 133 468 q 174 509 232 509 q 265 509 290 493 q 315 477 327 449 q 328 446 330 446 q 331 447 332 450 l 337 491 q 337 495 340 498 q 343 501 348 501 z m 293 137 l 321 364 q 322 371 322 385 q 322 428 298 454 q 274 481 234 481 q 187 481 154 448 q 120 416 114 364 l 86 137 q 85 130 85 117 q 85 73 110 46 q 135 20 177 20 q 222 20 254 52 q 287 85 293 137 z"},"L":{"x_min":0,"x_max":367,"ha":367,"o":"m 67 10 l 151 690 q 151 694 154 697 q 157 700 162 700 l 171 700 q 176 700 178 697 q 181 694 180 690 l 99 32 q 99 28 102 28 l 334 28 q 343 28 343 18 l 342 10 q 340 0 331 0 l 76 0 q 71 0 68 3 q 66 6 67 10 z"},"3":{"x_min":0,"x_max":380,"ha":380,"o":"m 328 274 q 328 248 323 206 q 316 145 299 101 q 255 -8 159 -8 q 109 -8 80 22 q 51 51 46 107 q 44 127 44 140 q 44 165 47 193 q 49 203 58 203 l 68 203 q 72 203 74 200 q 77 197 76 193 q 74 177 74 149 q 74 127 75 117 q 84 20 163 20 q 236 20 271 106 q 287 151 294 207 q 298 238 298 271 q 298 302 293 330 q 276 404 210 404 q 202 404 192 402 l 188 402 q 183 402 180 406 l 176 410 q 174 414 174 416 q 174 418 176 424 l 340 667 q 341 669 340 670 q 340 672 338 672 l 117 672 q 113 672 110 675 q 108 678 109 682 l 110 690 q 112 700 121 700 l 372 700 q 381 700 381 690 l 379 679 q 379 674 375 666 l 218 432 q 216 427 220 427 q 259 427 284 406 q 309 384 320 343 q 328 311 328 274 z"},";":{"x_min":0,"x_max":165,"ha":165,"o":"m 78 403 q 78 423 90 438 q 103 453 119 453 q 132 453 141 442 q 150 432 150 416 q 150 396 137 381 q 124 366 108 366 q 95 366 86 376 q 78 387 78 403 z m 22 -51 l 68 139 q 69 148 78 148 l 88 148 q 92 148 94 145 q 97 142 95 137 l 46 -53 q 43 -62 35 -62 l 30 -62 q 25 -62 23 -58 q 21 -55 22 -51 z"},"J":{"x_min":0,"x_max":398,"ha":398,"o":"m 23 124 q 23 132 25 150 l 37 242 q 37 246 40 249 q 43 252 47 252 l 57 252 q 66 252 66 242 l 54 149 q 53 142 53 128 q 53 79 80 50 q 107 20 153 20 q 204 20 240 56 q 275 91 282 149 l 349 690 q 349 694 352 697 q 355 700 359 700 l 369 700 q 378 700 378 690 l 311 150 q 303 79 258 36 q 214 -8 149 -8 q 91 -8 57 28 q 23 64 23 124 z"},"V":{"x_min":0,"x_max":398,"ha":398,"o":"m 164 9 l 107 689 q 107 700 117 700 l 128 700 q 137 700 137 691 l 187 66 q 187 63 188 63 q 189 63 190 66 l 393 691 q 396 700 405 700 l 415 700 q 425 700 422 689 l 198 9 q 195 0 186 0 l 174 0 q 164 0 164 9 z"},"\"":{"x_min":0,"x_max":165,"ha":165,"o":"m 73 508 l 91 682 q 91 686 94 689 q 97 692 101 692 l 113 692 q 122 692 122 682 l 97 508 q 96 498 86 498 l 82 498 q 72 498 73 508 z m 151 508 l 169 682 q 171 692 180 692 l 193 692 q 197 692 200 689 q 202 686 201 682 l 176 508 q 175 498 165 498 l 159 498 q 150 498 151 508 z"},"7":{"x_min":0,"x_max":331,"ha":331,"o":"m 93 11 l 342 668 q 343 669 342 670 q 341 672 339 672 l 121 672 q 117 672 117 668 l 112 626 q 110 616 101 616 l 94 616 q 84 616 86 626 l 93 690 q 94 694 97 697 q 100 700 104 700 l 368 700 q 377 700 377 690 l 375 678 q 375 675 374 672 q 373 669 372 666 l 123 9 q 122 5 119 2 q 116 0 112 0 l 100 0 q 88 0 93 11 z"},"S":{"x_min":0,"x_max":388,"ha":388,"o":"m 46 134 q 46 143 48 165 l 51 184 q 51 188 54 191 q 57 194 62 194 l 70 194 q 75 194 78 191 q 80 188 79 184 l 77 166 q 75 146 75 138 q 75 83 102 51 q 129 19 175 19 q 226 19 264 58 q 303 97 311 160 q 312 168 312 182 q 312 216 299 242 q 286 268 266 288 q 247 307 205 343 q 165 378 143 401 q 121 424 107 453 q 93 482 93 519 q 93 577 115 620 q 137 663 174 686 q 211 708 255 708 q 314 708 348 670 q 382 631 382 566 q 382 556 380 534 l 377 509 q 375 499 366 499 l 356 499 q 346 499 348 509 l 351 533 q 353 553 353 561 q 353 616 326 648 q 298 681 251 681 q 202 681 166 646 q 131 611 123 547 q 122 539 122 524 q 122 481 144 450 q 167 419 224 371 q 271 331 294 307 q 317 283 330 256 q 343 230 343 195 q 343 187 341 167 q 331 88 284 40 q 237 -8 173 -8 q 115 -8 80 30 q 46 69 46 134 z"},"}":{"x_min":0,"x_max":224,"ha":224,"o":"m 1 -106 q -4 -106 -6 -103 q -9 -100 -8 -96 l -7 -88 q -5 -78 4 -78 l 33 -78 q 63 -78 78 -59 q 94 -40 99 3 l 126 222 q 131 265 144 290 q 158 316 181 328 q 186 331 182 333 q 166 342 158 359 q 151 376 151 404 q 151 425 153 438 l 179 650 q 181 668 181 676 q 181 705 169 718 q 157 731 132 731 l 103 731 q 99 731 96 734 q 94 737 95 741 l 96 749 q 98 759 107 759 l 138 759 q 176 759 193 741 q 210 723 210 683 q 210 675 208 651 l 181 435 q 179 415 179 407 q 179 379 188 364 q 196 350 215 345 q 223 344 223 335 l 221 326 q 221 318 211 316 q 187 310 174 288 q 161 267 156 225 l 128 2 q 121 -56 98 -81 q 76 -106 32 -106 z"},"Z":{"x_min":0,"x_max":373,"ha":373,"o":"m 22 10 l 23 22 q 26 34 26 34 l 356 667 q 358 669 357 670 q 356 672 354 672 l 113 672 q 108 672 106 675 q 103 678 104 682 l 105 690 q 107 700 116 700 l 385 700 q 395 700 393 690 l 392 678 q 390 669 388 666 l 58 33 q 57 31 58 30 q 59 28 61 28 l 302 28 q 311 28 311 18 l 310 10 q 308 0 299 0 l 30 0 q 20 0 22 10 z"},"x":{"x_min":0,"x_max":328,"ha":328,"o":"m 7 12 l 159 247 q 162 250 160 253 l 66 489 l 65 493 q 65 501 74 501 l 87 501 q 95 501 98 494 l 177 280 q 178 278 180 278 q 182 278 183 280 l 314 494 q 317 501 326 501 l 338 501 q 343 501 344 498 q 346 494 343 489 l 193 253 q 192 251 192 247 l 285 12 l 286 9 q 286 0 276 0 l 265 0 q 255 0 254 7 l 176 221 q 175 223 173 223 q 171 223 170 221 l 38 7 q 34 0 25 0 l 14 0 q 9 0 6 4 q 4 7 7 12 z"},")":{"x_min":0,"x_max":164,"ha":164,"o":"m 170 759 q 184 712 192 645 q 200 578 200 503 q 200 414 190 333 q 175 210 140 90 q 104 -29 61 -105 q 57 -112 49 -112 l 42 -112 q 37 -112 34 -108 q 32 -105 35 -101 q 75 -25 108 93 q 141 211 156 331 q 167 425 167 508 q 167 657 140 755 l 140 758 q 140 761 142 764 q 145 766 149 766 l 160 766 q 167 766 170 759 z"},"&":{"x_min":0,"x_max":492,"ha":492,"o":"m 420 7 q 420 0 410 0 l 401 0 q 394 0 390 7 l 347 91 q 346 93 344 92 q 342 92 341 91 q 297 37 258 14 q 220 -8 174 -8 q 113 -8 78 26 q 43 59 43 120 q 43 128 45 148 q 54 218 92 268 q 130 318 196 375 q 200 377 198 380 q 163 447 151 480 q 139 514 139 541 q 139 591 157 629 q 175 667 206 688 q 237 708 275 708 q 322 708 350 678 q 378 647 378 596 q 378 548 359 509 q 340 470 312 442 q 285 413 238 371 q 234 369 236 365 l 293 253 l 347 148 q 348 147 350 147 q 352 147 353 148 q 363 161 385 193 l 413 233 q 417 242 427 236 l 433 231 q 439 225 434 218 q 387 149 365 121 q 364 119 364 115 l 418 12 z m 168 544 q 168 520 178 490 q 189 460 219 399 q 220 395 225 398 q 267 435 292 462 q 316 488 332 520 q 349 553 349 592 q 349 633 328 656 q 308 680 273 680 q 227 680 198 642 q 168 605 168 544 z m 330 117 q 332 120 330 123 l 313 156 q 300 184 289 203 q 277 225 268 244 q 258 262 250 277 q 231 316 214 346 q 214 350 209 347 q 150 295 116 250 q 82 205 75 146 q 73 130 73 122 q 73 74 100 47 q 127 20 176 20 q 219 20 252 42 q 286 63 330 117 z"},"_":{"x_min":0,"x_max":340,"ha":340,"o":"m 8 10 l 9 18 q 11 28 20 28 l 288 28 q 292 28 294 25 q 297 22 296 18 l 295 10 q 293 0 284 0 l 16 0 q 12 0 10 3 q 7 6 8 10 z"},"v":{"x_min":0,"x_max":335,"ha":335,"o":"m 133 9 l 70 490 l 70 492 q 70 501 80 501 l 93 501 q 102 501 102 492 l 153 55 q 154 52 155 52 q 156 52 157 55 l 316 492 q 318 501 327 501 l 340 501 q 351 501 346 490 l 168 9 q 165 0 156 0 l 143 0 q 139 0 136 2 q 133 5 133 9 z"},"O":{"x_min":0,"x_max":433,"ha":433,"o":"m 64 128 q 64 145 65 153 l 114 546 q 122 618 170 663 q 217 708 283 708 q 344 708 380 671 q 416 634 416 572 q 416 564 414 546 l 366 153 q 357 81 310 36 q 262 -8 195 -8 q 135 -8 100 29 q 64 66 64 128 z m 337 151 l 385 548 q 386 555 386 570 q 386 620 357 650 q 328 680 279 680 q 226 680 188 643 q 150 606 143 548 l 94 151 q 93 144 93 131 q 93 81 122 50 q 150 20 198 20 q 252 20 290 56 q 329 93 337 151 z"},"(":{"x_min":0,"x_max":164,"ha":164,"o":"m 35 -105 q 21 -58 13 9 q 5 76 5 151 q 5 240 15 321 q 31 446 66 565 q 102 684 145 759 q 148 766 156 766 l 164 766 q 169 766 171 762 q 173 759 170 755 q 131 678 98 560 q 64 442 49 323 q 39 237 39 145 q 39 -6 65 -101 l 66 -104 q 66 -112 56 -112 l 45 -112 q 38 -112 35 -105 z"},"C":{"x_min":0,"x_max":422,"ha":422,"o":"m 63 124 q 63 133 65 151 l 114 550 q 123 622 169 665 q 215 708 281 708 q 342 708 378 672 q 413 637 413 577 q 413 568 411 550 l 408 530 q 408 526 405 523 q 402 520 398 520 l 387 519 q 378 519 378 529 l 381 552 q 382 560 382 574 q 382 623 354 652 q 326 680 277 680 q 224 680 187 645 q 150 610 143 552 l 94 149 q 93 142 93 128 q 93 79 120 50 q 148 20 196 20 q 250 20 287 56 q 324 91 332 149 l 334 171 q 336 180 345 180 l 356 179 q 360 179 362 176 q 365 173 364 169 l 362 151 q 353 79 307 36 q 261 -8 193 -8 q 133 -8 98 28 q 63 64 63 124 z"},"W":{"x_min":0,"x_max":567,"ha":567,"o":"m 140 9 l 98 689 q 98 700 108 700 l 119 700 q 128 700 128 691 l 163 72 q 164 70 165 70 q 166 70 167 72 l 336 691 q 339 700 347 700 l 359 700 q 367 700 367 691 l 387 72 q 388 70 389 70 q 390 70 391 72 l 569 691 q 572 700 581 700 l 592 700 q 602 700 600 689 l 397 9 q 394 0 385 0 l 373 0 q 365 0 365 9 l 346 625 q 346 627 345 627 q 344 627 343 625 l 172 9 q 169 0 161 0 l 149 0 q 140 0 140 9 z"},"A":{"x_min":0,"x_max":356,"ha":356,"o":"m 297 9 l 285 148 q 285 152 281 152 l 74 152 q 72 152 70 151 q 69 150 69 148 l 22 9 q 21 0 11 0 l 1 0 q -4 0 -6 3 q -8 6 -6 11 l 225 691 q 228 700 237 700 l 251 700 q 260 700 260 691 l 326 11 l 326 9 q 326 5 323 2 q 320 0 316 0 l 307 0 q 297 0 297 9 z m 84 179 l 277 179 q 279 179 280 180 q 282 182 281 183 l 239 644 q 239 647 238 647 q 237 647 235 644 l 81 183 q 80 182 81 180 q 82 179 84 179 z"},"f":{"x_min":0,"x_max":257,"ha":257,"o":"m 166 548 l 161 505 q 161 501 164 501 l 250 501 q 260 501 258 491 l 257 485 q 257 481 254 478 q 251 475 247 475 l 161 475 q 157 475 157 471 l 100 10 q 98 0 89 0 l 80 0 q 75 0 72 3 q 70 6 71 10 l 128 471 q 128 475 124 475 l 81 475 q 76 475 74 478 q 71 481 72 485 l 73 491 q 75 501 84 501 l 127 501 q 129 501 130 502 q 132 503 132 505 l 137 549 q 147 630 176 670 q 205 709 264 709 l 278 709 q 287 709 287 699 l 286 692 q 284 682 275 682 l 261 682 q 215 682 195 650 q 175 618 166 548 z"},"Q":{"x_min":0,"x_max":420,"ha":420,"o":"m 404 572 q 404 564 402 546 l 354 154 q 346 88 306 44 q 266 0 209 -7 q 206 -7 204 -11 l 192 -115 q 191 -119 188 -122 q 185 -125 181 -125 l 170 -125 q 161 -125 161 -115 l 174 -11 q 174 -7 171 -7 q 121 -1 92 36 q 64 72 64 129 q 64 145 65 154 l 114 546 q 122 618 168 663 q 214 708 278 708 q 336 708 370 671 q 404 634 404 572 z m 373 548 q 374 555 374 569 q 374 620 348 650 q 321 680 275 680 q 224 680 187 644 q 150 607 143 548 l 94 152 q 93 145 93 131 q 93 81 120 50 q 148 20 194 20 q 244 20 280 57 q 317 94 324 152 z"},"w":{"x_min":0,"x_max":504,"ha":504,"o":"m 111 9 l 69 490 q 69 501 79 501 l 89 501 q 98 501 98 492 l 130 51 q 131 48 132 48 q 133 48 134 51 l 276 492 q 278 501 288 501 l 298 501 q 308 501 308 492 l 342 51 q 342 48 344 48 q 345 48 346 51 l 488 492 q 491 501 500 501 l 510 501 q 514 501 516 498 q 519 495 517 490 l 355 9 q 352 0 343 0 l 332 0 q 322 0 322 9 l 287 438 q 286 441 285 441 q 284 441 283 438 l 145 9 q 142 0 133 0 l 120 0 q 111 0 111 9 z"},"-":{"x_min":0,"x_max":294,"ha":294,"o":"m 55 316 l 56 324 q 58 334 67 334 l 270 334 q 280 334 278 324 l 277 316 q 277 312 274 309 q 271 306 266 306 l 64 306 q 55 306 55 316 z"},"E":{"x_min":0,"x_max":411,"ha":411,"o":"m 418 672 l 181 672 q 180 672 178 671 q 177 670 177 668 l 140 368 q 140 364 144 364 l 299 364 q 309 364 307 354 l 306 347 q 306 343 303 340 q 300 337 296 337 l 140 337 q 136 337 136 333 l 99 32 q 99 28 102 28 l 339 28 q 348 28 348 18 l 347 10 q 346 6 343 3 q 340 0 336 0 l 76 0 q 71 0 68 3 q 66 6 67 10 l 151 690 q 151 694 154 697 q 157 700 162 700 l 422 700 q 426 700 428 697 q 431 694 430 690 l 429 682 q 427 672 418 672 z"},"s":{"x_min":0,"x_max":342,"ha":342,"o":"m 44 101 q 44 112 45 117 l 46 122 q 48 132 57 132 l 66 132 q 70 132 72 129 q 75 126 74 122 l 74 118 q 73 113 73 104 q 73 68 98 45 q 122 22 164 22 q 212 22 243 55 q 274 88 274 140 q 274 167 262 185 q 249 203 231 214 q 213 225 180 240 q 147 255 126 268 q 106 281 92 303 q 78 325 78 358 q 78 370 79 377 q 86 435 125 470 q 164 505 221 505 q 273 505 302 475 q 332 445 332 397 q 332 385 331 378 l 330 375 q 330 371 327 368 q 324 365 319 365 l 312 365 q 307 365 304 368 q 302 371 303 375 l 303 378 q 304 383 304 392 q 304 430 280 454 q 257 478 217 478 q 174 478 144 450 q 114 422 108 377 q 107 372 107 363 q 107 327 129 307 q 151 287 195 267 q 231 251 252 238 q 273 224 288 201 q 303 178 303 144 q 303 79 262 38 q 222 -4 160 -4 q 107 -4 76 25 q 44 54 44 101 z"},">":{"x_min":0,"x_max":430,"ha":430,"o":"m 32 68 q 24 68 26 76 l 27 87 q 29 97 35 99 l 376 265 q 378 266 378 268 q 379 270 377 271 l 77 438 q 70 441 72 450 l 73 461 q 74 466 78 468 q 81 470 86 468 l 404 288 q 411 285 409 276 l 407 261 q 407 252 399 249 l 37 69 q 35 68 32 68 z"},"l":{"x_min":0,"x_max":160,"ha":160,"o":"m 48 10 l 131 690 q 133 700 142 700 l 152 700 q 162 700 160 690 l 77 10 q 75 0 66 0 l 56 0 q 46 0 48 10 z"},"8":{"x_min":0,"x_max":400,"ha":400,"o":"m 288 373 q 318 355 333 316 q 344 281 344 240 q 344 217 341 191 q 334 138 316 94 q 295 45 260 18 q 224 -8 178 -8 q 134 -8 106 18 q 77 45 68 93 q 64 113 64 142 q 64 165 67 192 q 76 263 100 306 q 123 351 163 373 q 168 377 164 378 q 134 394 119 428 q 107 457 107 498 q 107 523 109 536 q 118 604 145 643 q 165 674 196 691 q 228 708 266 708 q 344 708 371 646 q 385 618 385 573 q 385 561 383 535 q 375 470 348 431 q 324 396 289 378 q 285 377 288 373 z m 227 390 q 259 390 284 405 q 309 420 326 447 q 348 482 355 536 q 357 558 357 567 q 357 606 344 631 q 322 681 263 681 q 203 681 168 627 q 135 575 135 505 q 135 469 146 441 q 169 390 227 390 z m 312 191 q 315 215 315 235 q 315 273 306 298 q 288 362 224 362 q 159 362 124 293 q 103 253 95 192 q 92 168 92 148 q 92 126 97 103 q 104 63 126 42 q 147 20 182 20 q 217 20 246 42 q 274 65 291 107 q 306 148 312 191 z"},"\\":{"x_min":0,"x_max":278,"ha":278,"o":"m 230 9 q 230 0 221 0 l 211 0 q 207 0 204 2 q 202 5 202 9 l 134 689 q 134 700 143 700 l 153 700 q 162 700 162 691 l 230 11 z"},"e":{"x_min":0,"x_max":379,"ha":379,"o":"m 328 244 l 103 244 q 100 244 98 240 l 86 137 q 85 130 85 117 q 85 73 110 46 q 134 20 176 20 q 214 20 244 43 q 274 66 287 104 q 292 113 299 113 l 309 113 q 314 113 316 110 q 318 106 316 101 q 301 52 262 22 q 224 -8 173 -8 q 119 -8 87 26 q 55 59 55 113 q 55 121 57 137 l 84 364 q 92 427 134 468 q 177 509 236 509 q 290 509 322 475 q 353 441 353 386 q 353 372 352 364 l 339 254 q 337 244 328 244 z m 114 364 l 103 274 q 102 273 103 272 q 104 270 106 270 l 308 270 q 312 270 312 274 l 323 364 q 324 371 324 384 q 324 428 300 454 q 275 481 233 481 q 186 481 153 448 q 120 416 114 364 z"},"b":{"x_min":0,"x_max":397,"ha":397,"o":"m 365 387 q 365 372 364 364 l 336 137 q 328 73 287 32 q 246 -8 187 -8 q 154 -8 130 7 q 106 22 92 49 q 91 51 90 51 q 88 51 87 48 l 83 10 q 81 0 72 0 l 62 0 q 52 0 54 10 l 137 690 q 139 700 148 700 l 158 700 q 168 700 166 690 l 137 452 q 136 449 138 448 q 139 448 141 451 q 162 479 190 494 q 218 509 251 509 q 303 509 334 476 q 365 442 365 387 z m 336 382 q 336 426 310 454 q 285 481 242 481 q 198 481 166 448 q 133 416 126 364 l 98 137 q 97 131 97 119 q 97 75 122 48 q 146 20 186 20 q 233 20 266 52 q 300 85 307 137 l 335 364 q 336 370 336 382 z"},"%":{"x_min":0,"x_max":767,"ha":767,"o":"m 136 560 q 136 600 156 634 q 176 669 209 690 q 242 710 280 710 q 328 710 359 676 q 390 643 390 594 q 390 554 370 520 q 350 485 317 464 q 284 443 247 443 q 199 443 168 476 q 136 510 136 560 z m 174 12 l 614 693 q 617 700 626 700 l 632 700 q 638 700 640 696 q 642 693 638 688 l 199 7 q 195 0 186 0 l 180 0 q 175 0 172 4 q 170 7 174 12 z m 366 591 q 366 631 341 658 q 316 685 277 685 q 247 685 220 668 q 193 651 176 623 q 160 595 160 563 q 160 522 186 495 q 211 468 250 468 q 280 468 307 485 q 334 502 350 530 q 366 559 366 591 z m 424 105 q 424 146 444 181 q 464 216 497 236 q 530 257 568 257 q 616 257 647 224 q 678 190 678 141 q 678 101 658 66 q 638 32 605 11 q 572 -10 535 -10 q 487 -10 456 23 q 424 56 424 105 z m 654 138 q 654 178 629 205 q 604 232 565 232 q 534 232 507 215 q 480 198 464 170 q 448 142 448 109 q 448 68 474 42 q 499 15 538 15 q 568 15 595 32 q 622 49 638 78 q 654 106 654 138 z"},"m":{"x_min":0,"x_max":613,"ha":613,"o":"m 572 383 q 572 360 570 347 l 529 10 q 527 0 518 0 l 509 0 q 499 0 501 10 l 542 344 q 544 364 544 373 q 544 423 522 452 q 500 480 462 480 q 417 480 386 444 q 354 407 347 345 l 306 10 q 304 0 295 0 l 285 0 q 275 0 277 10 l 318 344 q 320 364 320 373 q 320 423 298 452 q 277 480 240 480 q 195 480 163 444 q 131 407 124 345 l 83 10 q 81 0 72 0 l 62 0 q 52 0 54 10 l 113 491 q 113 495 116 498 q 119 501 124 501 l 133 501 q 138 501 140 498 q 143 495 142 491 l 136 446 q 136 443 138 442 q 140 442 141 445 q 161 475 190 492 q 218 508 251 508 q 288 508 313 486 q 338 464 346 423 q 346 417 351 424 q 370 465 402 486 q 435 508 474 508 q 519 508 546 474 q 572 441 572 383 z"},"#":{"x_min":0,"x_max":556,"ha":556,"o":"m 515 444 l 455 444 q 450 444 450 440 l 399 246 q 399 242 401 242 l 460 242 q 465 242 468 239 q 470 236 469 232 l 468 224 q 466 214 457 214 l 394 214 q 389 214 389 210 l 337 19 q 335 11 325 11 l 317 11 q 313 11 310 14 q 308 17 309 22 l 358 210 q 359 211 358 212 q 357 214 356 214 l 180 214 q 175 214 174 210 l 124 20 q 121 11 112 11 l 103 11 q 99 11 96 14 q 94 17 96 22 l 145 210 q 145 214 143 214 l 83 214 q 78 214 76 217 q 73 220 74 224 l 75 232 q 77 242 86 242 l 150 242 q 155 242 155 246 l 206 440 q 207 441 206 442 q 205 444 204 444 l 141 444 q 132 444 132 454 l 133 462 q 135 472 144 472 l 211 472 q 216 472 217 476 l 268 668 q 270 676 280 676 l 289 676 q 293 676 295 672 q 297 669 296 665 l 247 476 q 246 475 247 474 q 248 472 249 472 l 425 472 q 430 472 430 476 l 482 668 q 483 676 493 676 l 503 676 q 507 676 510 673 q 512 670 510 665 l 460 476 q 460 472 462 472 l 519 472 q 529 472 527 462 l 526 454 q 524 444 515 444 z m 369 246 l 420 440 q 420 444 417 444 l 242 444 q 237 444 236 440 l 185 246 q 185 242 188 242 l 363 242 q 368 242 369 246 z"},",":{"x_min":0,"x_max":153,"ha":153,"o":"m 15 -57 l 76 144 q 79 153 88 153 l 95 153 q 100 153 102 150 q 105 147 103 142 l 39 -59 q 38 -68 28 -68 l 23 -68 q 13 -68 15 -57 z"},"n":{"x_min":0,"x_max":398,"ha":398,"o":"m 359 390 q 359 381 357 357 l 315 10 q 314 6 311 3 q 308 0 304 0 l 294 0 q 285 0 285 10 l 328 353 q 330 371 330 380 q 330 428 308 454 q 286 480 244 480 q 196 480 164 444 q 131 408 124 345 l 83 10 q 81 0 72 0 l 62 0 q 52 0 54 10 l 113 491 q 113 495 116 498 q 119 501 124 501 l 133 501 q 138 501 140 498 q 143 495 142 491 l 136 443 q 135 440 137 440 q 139 440 140 443 q 160 475 190 492 q 219 508 254 508 q 305 508 332 478 q 359 447 359 390 z"},"h":{"x_min":0,"x_max":398,"ha":398,"o":"m 359 390 q 359 381 357 357 l 315 10 q 314 6 311 3 q 308 0 304 0 l 294 0 q 285 0 285 10 l 328 353 q 330 371 330 380 q 330 428 308 454 q 286 480 244 480 q 196 480 164 444 q 131 408 124 345 l 83 10 q 81 0 72 0 l 62 0 q 52 0 54 10 l 137 690 q 139 700 148 700 l 158 700 q 168 700 166 690 l 136 443 q 135 440 137 440 q 139 440 140 443 q 160 475 190 492 q 219 508 254 508 q 305 508 332 478 q 359 447 359 390 z"},"z":{"x_min":0,"x_max":343,"ha":343,"o":"m 23 10 l 24 21 q 24 24 28 34 l 307 468 q 309 473 305 473 l 92 473 q 82 473 84 483 l 85 491 q 85 495 88 498 q 91 501 95 501 l 338 501 q 348 501 346 491 l 345 480 q 345 477 341 467 l 61 33 q 59 28 63 28 l 278 28 q 288 28 286 18 l 285 10 q 285 6 282 3 q 279 0 275 0 l 31 0 q 21 0 23 10 z"},"B":{"x_min":0,"x_max":423,"ha":423,"o":"m 319 359 q 354 342 372 307 q 390 272 390 222 q 390 211 388 187 q 377 99 328 50 q 279 0 203 0 l 76 0 q 71 0 68 3 q 66 6 67 10 l 151 690 q 151 694 154 697 q 157 700 162 700 l 287 700 q 355 700 392 662 q 429 625 429 556 q 429 546 427 522 q 420 464 392 424 q 364 383 319 364 q 314 362 319 359 z m 177 668 l 142 380 q 141 379 142 378 q 143 376 145 376 l 247 376 q 309 376 349 414 q 389 453 398 521 q 400 541 400 550 q 400 608 370 640 q 339 672 283 672 l 181 672 q 180 672 178 671 q 177 670 177 668 z m 359 188 q 361 210 361 220 q 361 282 330 316 q 300 349 245 349 l 142 349 q 139 349 137 345 l 99 33 q 99 29 103 29 l 204 29 q 268 29 308 71 q 349 113 359 188 z"},"K":{"x_min":0,"x_max":417,"ha":417,"o":"m 67 10 l 151 690 q 151 694 154 697 q 157 700 162 700 l 171 700 q 176 700 178 697 q 181 694 180 690 l 135 325 q 134 322 136 322 q 138 321 140 324 l 408 693 q 415 700 421 700 l 434 700 q 440 700 442 696 q 443 693 439 688 l 252 428 q 249 425 251 422 l 374 12 l 375 9 q 375 0 365 0 l 351 0 q 344 0 341 8 l 227 392 q 226 396 222 392 l 129 272 q 128 271 128 267 l 96 10 q 96 6 93 3 q 90 0 85 0 l 76 0 q 71 0 68 3 q 66 6 67 10 z"},"R":{"x_min":0,"x_max":414,"ha":414,"o":"m 331 8 l 256 335 q 255 338 252 338 l 140 338 q 139 338 138 337 q 136 336 136 334 l 96 10 q 96 6 93 3 q 90 0 85 0 l 76 0 q 71 0 68 3 q 66 6 67 10 l 151 690 q 151 694 154 697 q 157 700 162 700 l 299 700 q 357 700 390 660 q 423 620 423 552 q 423 542 421 518 q 412 448 376 400 q 340 353 287 341 q 283 339 284 336 l 359 11 l 359 9 q 359 0 350 0 l 341 0 q 332 0 331 8 z m 177 668 l 140 369 q 140 365 144 365 l 257 365 q 309 365 346 407 q 383 449 391 518 q 393 540 393 550 q 393 606 366 639 q 340 672 295 672 l 181 672 q 180 672 178 671 q 177 670 177 668 z"},"T":{"x_min":0,"x_max":384,"ha":384,"o":"m 412 690 l 411 682 q 409 672 400 672 l 270 672 q 267 672 265 668 l 185 10 q 184 6 181 3 q 178 0 174 0 l 164 0 q 155 0 155 10 l 236 668 q 236 672 233 672 l 111 672 q 106 672 104 675 q 101 678 102 682 l 103 690 q 105 700 114 700 l 403 700 q 412 700 412 690 z"},"P":{"x_min":0,"x_max":416,"ha":416,"o":"m 423 553 q 423 542 421 518 q 410 436 365 386 q 320 336 256 336 l 140 336 q 136 336 136 332 l 96 10 q 96 6 93 3 q 90 0 85 0 l 76 0 q 71 0 68 3 q 66 6 67 10 l 151 692 q 153 702 162 702 l 300 702 q 357 702 390 662 q 423 621 423 553 z m 391 518 q 393 540 393 551 q 393 608 367 641 q 341 674 295 674 l 182 674 q 179 674 177 670 l 140 367 q 140 363 144 363 l 257 363 q 309 363 346 406 q 383 448 391 518 z"},"|":{"x_min":0,"x_max":115,"ha":115,"o":"m 15 -70 l 115 750 q 117 760 126 760 l 136 760 q 146 760 144 750 l 44 -70 q 42 -80 33 -80 l 23 -80 q 13 -80 15 -70 z"},"t":{"x_min":0,"x_max":245,"ha":245,"o":"m 242 475 l 159 475 q 155 475 155 471 l 112 126 q 110 104 110 96 q 110 58 126 43 q 142 28 175 28 l 186 28 q 196 28 194 18 l 193 10 q 193 6 190 3 q 187 0 182 0 l 168 0 q 125 0 102 20 q 80 39 80 90 q 80 98 82 124 l 125 471 q 125 475 121 475 l 82 475 q 77 475 74 478 q 72 481 73 485 l 74 491 q 76 501 85 501 l 125 501 q 129 501 129 505 l 143 617 q 143 621 146 624 q 149 627 154 627 l 164 627 q 173 627 173 617 l 159 505 q 159 501 162 501 l 245 501 q 255 501 253 491 l 253 485 q 252 481 249 478 q 246 475 242 475 z"},"M":{"x_min":0,"x_max":490,"ha":490,"o":"m 451 700 l 461 700 q 466 700 468 697 q 471 694 470 690 l 386 10 q 386 6 383 3 q 380 0 375 0 l 366 0 q 361 0 358 3 q 356 6 357 10 l 432 616 q 432 619 430 619 q 428 619 427 617 l 279 337 q 275 329 267 329 l 266 329 q 258 329 257 337 l 176 616 q 175 618 173 618 q 171 618 171 615 l 96 10 q 96 6 93 3 q 90 0 85 0 l 76 0 q 71 0 68 3 q 66 6 67 10 l 151 690 q 151 694 154 697 q 157 700 162 700 l 172 700 q 181 700 182 692 l 270 386 q 271 384 273 384 q 275 384 276 386 l 439 692 q 443 700 451 700 z"},"g":{"x_min":0,"x_max":385,"ha":385,"o":"m 348 501 l 358 501 q 363 501 366 498 q 368 495 367 491 l 307 2 q 282 -200 113 -200 q 106 -200 104 -198 q 102 -195 103 -190 l 104 -183 q 104 -179 107 -176 q 110 -173 115 -173 q 188 -173 227 -128 q 266 -83 277 3 l 283 50 q 283 53 282 54 q 280 54 278 52 q 259 24 230 8 q 202 -7 169 -7 q 116 -7 86 26 q 55 58 55 112 q 55 119 57 137 l 84 364 q 92 428 133 468 q 174 509 232 509 q 265 509 290 494 q 315 478 327 450 q 328 448 330 448 q 331 449 332 452 l 337 491 q 337 495 340 498 q 343 501 348 501 z m 293 138 l 321 364 q 322 371 322 385 q 322 428 298 454 q 274 481 234 481 q 187 481 154 448 q 120 416 114 364 l 86 138 q 85 131 85 118 q 85 74 110 48 q 135 21 177 21 q 222 21 254 54 q 287 86 293 138 z"},"j":{"x_min":0,"x_max":184,"ha":184,"o":"m 107 650 q 107 670 120 684 q 134 698 153 698 q 169 698 179 688 q 189 678 189 662 q 189 641 176 627 q 162 613 142 613 q 126 613 116 623 q 107 633 107 650 z m -58 -201 l -57 -193 q -55 -183 -46 -183 q -9 -179 14 -150 q 38 -120 44 -69 l 113 491 q 113 495 116 498 q 119 501 124 501 l 133 501 q 138 501 140 498 q 143 495 142 491 l 73 -69 q 65 -133 34 -170 q 4 -207 -49 -211 q -58 -211 -58 -201 z"},"i":{"x_min":0,"x_max":195,"ha":195,"o":"m 117 650 q 117 670 130 684 q 144 698 164 698 q 180 698 190 688 q 200 678 200 662 q 200 641 186 627 q 173 613 154 613 q 138 613 128 624 q 117 634 117 650 z m 65 10 l 124 491 q 126 501 135 501 l 145 501 q 155 501 153 491 l 94 10 q 94 6 91 3 q 88 0 83 0 l 74 0 q 65 0 65 10 z"},"y":{"x_min":0,"x_max":325,"ha":325,"o":"m -3 -190 l -2 -183 q 0 -173 9 -173 l 10 -173 q 38 -172 54 -159 q 71 -146 86 -113 q 101 -80 128 -3 q 129 -1 128 0 q 128 2 128 3 l 63 490 l 63 492 q 63 501 73 501 l 84 501 q 93 501 93 492 l 147 47 q 148 44 149 44 q 150 44 151 47 l 314 492 q 316 501 325 501 l 336 501 q 348 501 343 490 l 137 -59 q 113 -122 96 -151 q 78 -180 58 -190 q 39 -200 6 -200 l 2 -200 q 0 -200 -2 -197 q -4 -194 -3 -190 z"},"@":{"x_min":0,"x_max":741,"ha":741,"o":"m 705 365 q 705 317 692 266 q 670 175 621 124 q 572 72 508 72 q 476 72 455 86 q 434 100 426 125 q 424 130 421 125 q 405 99 380 84 q 355 70 328 70 q 292 70 272 90 q 252 111 252 146 q 252 158 255 173 l 294 331 q 305 376 336 404 q 368 433 410 433 q 431 433 448 424 q 464 414 471 396 q 472 394 474 394 q 475 395 476 397 l 481 419 q 484 428 492 428 l 499 428 q 504 428 506 424 q 508 421 507 417 l 452 197 q 448 182 448 166 q 448 135 466 116 q 484 97 516 97 q 565 97 604 140 q 644 184 664 264 q 677 312 677 358 q 677 455 618 512 q 559 568 457 568 q 378 568 304 528 q 231 487 176 414 q 122 341 99 247 q 87 196 87 152 q 87 51 144 -8 q 202 -67 299 -67 q 351 -67 398 -53 q 444 -39 473 -18 q 481 -12 486 -20 l 489 -23 q 491 -27 491 -29 q 491 -35 486 -37 q 453 -61 402 -77 q 350 -93 292 -93 q 185 -93 122 -28 q 60 36 60 145 q 60 194 73 246 q 98 348 158 427 q 217 506 298 550 q 378 593 465 593 q 576 593 640 532 q 705 471 705 365 z m 421 174 l 426 191 l 426 195 l 441 255 l 446 273 l 461 336 q 462 342 462 352 q 462 378 448 394 q 434 409 410 409 q 379 409 354 386 q 329 364 320 329 l 309 287 l 300 251 l 281 174 q 279 166 279 152 q 279 126 294 110 q 308 95 334 95 q 363 95 386 116 q 410 138 421 174 z"},".":{"x_min":0,"x_max":165,"ha":165,"o":""},"p":{"x_min":0,"x_max":404,"ha":404,"o":"m 371 387 q 371 372 370 364 l 342 137 q 334 73 293 32 q 252 -8 194 -8 q 161 -8 136 7 q 112 22 99 49 q 98 51 96 51 q 95 51 94 48 l 65 -189 q 63 -199 54 -199 l 44 -199 q 40 -199 38 -196 q 35 -193 36 -189 l 119 491 q 120 495 123 498 q 126 501 130 501 l 140 501 q 149 501 149 491 l 144 453 q 143 450 144 450 q 146 449 148 452 q 168 479 196 494 q 224 509 257 509 q 310 509 340 476 q 371 442 371 387 z m 343 382 q 343 426 318 454 q 292 481 249 481 q 204 481 172 448 q 139 416 133 364 l 105 137 q 104 130 104 118 q 104 73 128 46 q 152 20 193 20 q 240 20 274 52 q 307 85 314 137 l 342 364 q 343 370 343 382 z"},"X":{"x_min":0,"x_max":397,"ha":397,"o":"m 27 12 l 206 347 q 208 350 206 353 l 110 688 l 109 691 q 109 700 119 700 l 131 700 q 139 700 140 692 l 224 384 q 224 382 226 382 q 229 382 230 384 l 389 692 q 392 700 400 700 l 412 700 q 417 700 419 696 q 421 693 418 688 l 238 352 q 237 350 237 346 l 335 12 l 336 9 q 336 0 326 0 l 314 0 q 306 0 305 8 l 221 315 q 220 317 218 317 q 217 317 215 315 l 56 8 q 53 0 45 0 l 33 0 q 28 0 26 4 q 24 7 27 12 z"},"*":{"x_min":0,"x_max":349,"ha":349,"o":"m 192 403 l 209 542 q 210 544 208 545 q 207 546 205 545 l 85 474 l 80 472 q 76 472 72 478 l 71 482 q 70 484 70 487 q 70 492 75 496 l 196 567 q 198 568 198 570 q 198 572 196 573 l 94 644 q 87 649 92 658 l 95 662 q 97 666 101 668 q 105 669 109 666 l 211 595 q 213 594 214 595 q 216 596 216 598 l 233 737 q 235 747 244 747 l 250 747 q 260 747 258 737 l 241 598 q 241 596 242 595 q 244 594 246 595 l 365 666 l 370 668 q 376 668 378 662 l 380 658 q 381 656 381 653 q 381 649 375 644 l 255 573 q 253 572 253 570 q 253 568 254 567 l 357 496 q 363 491 358 482 l 356 478 q 349 469 341 474 l 240 545 q 238 546 236 545 q 235 544 234 542 l 217 403 q 217 399 214 396 q 211 393 206 393 l 201 393 q 196 393 194 396 q 191 399 192 403 z"},"Y":{"x_min":0,"x_max":383,"ha":383,"o":"m 159 10 l 199 332 l 199 337 l 109 688 l 108 691 q 108 700 118 700 l 129 700 q 137 700 138 692 l 215 370 q 216 367 218 367 q 220 367 221 370 l 376 692 q 380 700 388 700 l 398 700 q 403 700 405 696 q 407 693 405 688 l 230 337 q 228 336 228 332 l 188 10 q 188 6 185 3 q 182 0 178 0 l 168 0 q 159 0 159 10 z"},"c":{"x_min":0,"x_max":372,"ha":372,"o":"m 55 113 q 55 121 57 137 l 84 364 q 92 427 134 468 q 177 509 236 509 q 290 509 323 476 q 356 443 356 396 l 355 383 l 354 380 q 352 370 343 370 l 334 370 q 329 370 326 373 q 324 376 325 380 l 325 383 q 326 387 326 395 q 326 430 300 456 q 274 481 233 481 q 186 481 153 448 q 120 416 114 364 l 86 137 q 85 130 85 117 q 85 73 110 46 q 134 20 176 20 q 221 20 254 50 q 288 79 293 118 l 293 121 q 295 131 304 131 l 314 131 q 324 131 322 121 l 322 118 q 318 85 298 56 q 277 27 244 10 q 211 -8 173 -8 q 119 -8 87 26 q 55 59 55 113 z"},"!":{"x_min":0,"x_max":228,"ha":228,"o":"m 111 231 l 166 690 q 168 700 177 700 l 187 700 q 197 700 195 690 l 137 231 q 136 221 126 221 l 119 221 q 110 221 111 231 z m 59 41 q 59 62 72 76 q 86 90 106 90 q 122 90 132 80 q 142 69 142 53 q 142 33 128 19 q 115 5 96 5 q 79 5 69 15 q 59 25 59 41 z"},"/":{"x_min":0,"x_max":278,"ha":278,"o":"m 11 11 l 247 691 q 248 695 252 698 q 255 700 259 700 l 268 700 q 273 700 275 697 q 277 694 275 689 l 39 9 q 35 0 27 0 l 17 0 q 12 0 10 4 q 9 7 11 11 z"},"[":{"x_min":0,"x_max":269,"ha":269,"o":"m -8 -96 l 96 749 q 98 759 107 759 l 228 759 q 238 759 236 749 l 236 741 q 235 737 232 734 q 229 731 225 731 l 127 731 q 125 731 124 730 q 122 729 122 727 l 24 -74 q 24 -78 27 -78 l 126 -78 q 135 -78 135 -88 l 134 -96 q 132 -106 123 -106 l 1 -106 q -4 -106 -6 -103 q -9 -100 -8 -96 z"},"6":{"x_min":0,"x_max":381,"ha":381,"o":"m 348 277 q 348 243 344 211 q 338 161 327 128 q 308 61 270 26 q 233 -8 179 -8 q 123 -8 94 30 q 66 69 66 145 q 66 171 71 211 l 111 541 q 120 617 163 662 q 206 708 268 708 q 316 708 346 671 q 376 634 376 572 q 376 563 374 541 l 373 536 q 373 532 370 529 q 367 526 362 526 l 353 526 q 348 526 346 529 q 343 532 344 536 l 345 543 q 347 561 347 570 q 347 620 324 650 q 301 680 265 680 q 217 680 182 642 q 147 604 140 543 l 118 364 q 118 361 120 360 q 122 360 123 363 q 143 396 172 413 q 201 430 235 430 q 331 430 346 317 q 348 305 348 277 z m 315 211 q 319 239 319 268 q 319 293 316 312 q 306 402 230 402 q 153 402 120 307 q 106 270 100 211 q 95 171 95 145 q 95 20 183 20 q 268 20 299 132 q 309 164 315 211 z"},"r":{"x_min":0,"x_max":265,"ha":265,"o":"m 287 495 q 294 490 289 482 l 284 470 q 279 460 270 465 q 256 472 237 472 q 194 471 162 428 q 129 386 121 322 l 83 10 q 81 0 72 0 l 62 0 q 52 0 54 10 l 113 491 q 113 495 116 498 q 119 501 124 501 l 133 501 q 138 501 140 498 q 143 495 142 491 l 134 426 q 133 423 135 423 q 137 423 139 427 q 157 464 185 484 q 213 505 246 505 q 270 505 287 495 z"},"2":{"x_min":0,"x_max":369,"ha":369,"o":"m 70 28 l 310 28 q 320 28 318 18 l 317 10 q 317 6 314 3 q 311 0 307 0 l 37 0 q 28 0 28 10 l 30 21 q 30 26 34 34 l 102 136 q 192 270 236 337 q 320 461 329 542 q 331 562 331 571 q 331 621 307 650 q 283 680 241 680 q 195 680 162 642 q 130 604 123 542 l 119 508 q 117 498 108 498 l 97 498 q 87 498 89 508 l 93 543 q 103 617 144 662 q 186 708 245 708 q 299 708 330 672 q 361 635 361 573 q 361 564 359 542 q 346 448 263 322 l 69 33 q 67 28 70 28 z"},"{":{"x_min":0,"x_max":224,"ha":224,"o":"m 55 -30 q 55 -22 57 2 l 85 225 q 87 247 87 255 q 87 307 51 316 q 43 318 44 326 l 45 335 q 46 344 55 345 q 79 351 92 372 q 106 393 111 435 l 137 651 q 144 709 167 734 q 190 759 234 759 l 265 759 q 275 759 273 749 l 272 741 q 272 737 269 734 q 266 731 261 731 l 233 731 q 203 731 187 712 q 171 693 166 650 l 140 438 q 135 394 122 369 q 109 344 86 333 q 80 331 85 328 q 101 318 108 300 q 116 283 116 255 q 116 246 114 222 l 87 3 q 85 -17 85 -24 q 85 -52 96 -65 q 108 -78 134 -78 l 162 -78 q 171 -78 171 -88 l 170 -96 q 169 -100 166 -103 q 163 -106 159 -106 l 128 -106 q 90 -106 72 -88 q 55 -70 55 -30 z"},"9":{"x_min":0,"x_max":373,"ha":373,"o":"m 350 489 l 310 159 q 300 83 257 38 q 214 -8 151 -8 q 103 -8 74 28 q 45 65 45 126 q 45 135 47 159 l 47 164 q 49 174 58 174 l 68 174 q 78 174 76 164 l 76 157 q 74 137 74 128 q 74 79 96 50 q 119 20 155 20 q 204 20 238 58 q 272 95 280 157 l 302 336 q 303 339 301 340 q 299 340 298 337 q 278 304 248 287 q 219 270 185 270 q 89 270 74 383 q 72 395 72 421 q 72 458 77 489 q 81 529 93 572 q 131 708 240 708 q 354 708 354 554 q 354 520 350 489 z m 299 393 q 313 426 321 489 q 325 518 325 550 q 325 680 237 680 q 154 680 120 568 q 110 530 106 489 q 102 460 102 428 q 102 412 104 388 q 115 298 190 298 q 266 298 299 393 z"}," ":{"x_min":0,"x_max":194,"ha":194,"o":""},"I":{"x_min":0,"x_max":200,"ha":200,"o":"m 67 10 l 151 690 q 151 694 154 697 q 157 700 162 700 l 171 700 q 176 700 178 697 q 181 694 180 690 l 96 10 q 96 6 93 3 q 90 0 85 0 l 76 0 q 71 0 68 3 q 66 6 67 10 z"},"H":{"x_min":0,"x_max":453,"ha":453,"o":"m 415 700 l 424 700 q 429 700 432 697 q 434 694 433 690 l 349 10 q 349 6 346 3 q 343 0 339 0 l 329 0 q 320 0 320 10 l 360 333 q 360 337 357 337 l 140 337 q 136 337 136 333 l 96 10 q 96 6 93 3 q 90 0 85 0 l 76 0 q 71 0 68 3 q 66 6 67 10 l 151 690 q 151 694 154 697 q 157 700 162 700 l 171 700 q 176 700 178 697 q 181 694 180 690 l 140 368 q 140 364 144 364 l 360 364 q 364 364 364 368 l 404 690 q 406 700 415 700 z"},"4":{"x_min":0,"x_max":364,"ha":364,"o":"m 345 218 l 344 210 q 342 200 333 200 l 305 200 q 301 200 301 196 l 278 10 q 276 0 267 0 l 257 0 q 247 0 249 10 l 271 196 q 272 197 271 198 q 270 200 268 200 l 41 200 q 31 200 33 210 l 34 220 q 34 224 35 227 q 36 230 37 232 l 248 692 q 249 696 253 698 q 257 700 261 700 l 272 700 q 282 700 279 689 l 69 233 q 68 231 69 230 q 70 228 72 228 l 271 228 q 273 228 274 229 q 276 230 276 232 l 298 412 q 300 422 309 422 l 319 422 q 323 422 326 419 q 328 416 327 412 l 305 232 q 305 228 308 228 l 336 228 q 341 228 344 225 q 346 222 345 218 z"},"~":{"x_min":0,"x_max":431,"ha":431,"o":"m 220 287 q 202 298 187 304 q 172 310 153 310 q 104 310 75 268 q 72 264 68 263 q 64 262 61 264 l 57 266 q 49 271 55 280 q 73 308 99 324 q 125 339 156 339 q 180 339 198 332 q 215 325 233 312 q 260 294 277 286 q 294 278 321 278 q 341 278 356 288 q 371 298 389 319 q 396 326 401 322 l 405 320 l 407 319 q 414 312 408 305 q 388 279 366 264 q 344 250 317 250 q 287 250 267 259 q 247 268 220 287 z"},"D":{"x_min":0,"x_max":445,"ha":445,"o":"m 67 10 l 151 690 q 151 694 154 697 q 157 700 162 700 l 294 700 q 354 700 387 662 q 420 624 420 556 q 420 532 418 519 l 376 181 q 366 97 321 48 q 276 0 209 0 l 76 0 q 71 0 68 3 q 66 6 67 10 z m 102 28 l 213 28 q 266 28 302 69 q 338 110 346 181 l 388 518 q 390 540 390 551 q 390 608 364 640 q 339 672 292 672 l 181 672 q 180 672 178 671 q 177 670 177 668 l 99 32 q 99 28 102 28 z"},"^":{"x_min":0,"x_max":370,"ha":370,"o":"m 60 324 l 232 692 q 236 700 245 700 l 258 700 q 267 700 268 692 l 350 324 l 350 322 q 350 313 341 313 l 333 313 q 324 313 323 321 l 249 663 q 249 665 247 665 q 245 665 243 663 l 87 321 q 82 313 74 313 l 67 313 q 55 313 60 324 z"},"0":{"x_min":0,"x_max":426,"ha":426,"o":"m 61 129 q 61 137 63 157 l 110 543 q 120 618 166 664 q 213 709 280 709 q 341 709 376 672 q 412 634 412 570 q 412 561 410 543 l 363 157 q 353 82 306 36 q 259 -9 192 -9 q 131 -9 96 28 q 61 66 61 129 z m 333 154 l 381 546 q 382 554 382 569 q 382 620 354 650 q 326 681 277 681 q 223 681 185 644 q 147 607 140 546 l 92 154 q 91 146 91 131 q 91 80 119 50 q 147 19 195 19 q 250 19 288 56 q 325 93 333 154 z"},"F":{"x_min":0,"x_max":382,"ha":382,"o":"m 416 672 l 181 672 q 180 672 178 671 q 177 670 177 668 l 140 368 q 140 364 144 364 l 298 364 q 308 364 306 354 l 305 347 q 305 343 302 340 q 299 337 295 337 l 140 337 q 136 337 136 333 l 96 10 q 96 6 93 3 q 90 0 85 0 l 76 0 q 71 0 68 3 q 66 6 67 10 l 151 690 q 151 694 154 697 q 157 700 162 700 l 420 700 q 424 700 426 697 q 429 694 428 690 l 427 682 q 425 672 416 672 z"},"`":{"x_min":0,"x_max":153,"ha":153,"o":""},"k":{"x_min":0,"x_max":368,"ha":368,"o":"m 54 10 l 137 690 q 139 700 148 700 l 158 700 q 168 700 166 690 l 112 248 q 112 246 114 246 q 115 245 117 247 l 326 495 q 330 501 339 501 l 351 501 q 356 501 358 497 q 359 493 355 489 l 248 363 q 246 360 247 358 l 316 11 l 316 9 q 316 0 307 0 l 296 0 q 288 0 285 8 l 225 330 q 224 336 219 331 l 108 199 l 105 194 l 83 10 q 81 0 72 0 l 62 0 q 52 0 54 10 z"},"u":{"x_min":0,"x_max":398,"ha":398,"o":"m 349 501 l 358 501 q 363 501 366 498 q 368 495 367 491 l 308 10 q 306 0 297 0 l 287 0 q 277 0 279 10 l 284 50 q 284 53 282 54 q 280 54 279 51 q 240 -7 170 -7 q 119 -7 90 21 q 62 49 62 105 q 62 126 64 138 l 107 491 q 109 501 118 501 l 127 501 q 132 501 134 498 q 137 495 136 491 l 93 145 q 91 125 91 116 q 91 69 113 45 q 135 21 177 21 q 224 21 256 57 q 289 93 297 156 l 338 491 q 338 495 341 498 q 344 501 349 501 z"},"]":{"x_min":0,"x_max":269,"ha":269,"o":"m 204 -106 l 82 -106 q 72 -106 74 -96 l 75 -88 q 75 -84 78 -81 q 81 -78 85 -78 l 184 -78 q 186 -78 188 -77 q 189 -76 189 -74 l 287 727 q 287 731 284 731 l 186 731 q 177 731 177 741 l 178 749 q 180 759 189 759 l 310 759 q 315 759 318 756 q 320 753 319 749 l 215 -96 q 213 -106 204 -106 z"},"U":{"x_min":0,"x_max":460,"ha":460,"o":"m 79 142 q 79 165 81 177 l 144 690 q 146 700 155 700 l 165 700 q 169 700 172 697 q 174 694 173 690 l 110 173 q 108 151 108 142 q 108 86 136 53 q 164 20 212 20 q 268 20 307 62 q 346 104 354 173 l 417 690 q 418 694 421 697 q 424 700 428 700 l 438 700 q 447 700 447 690 l 384 177 q 373 94 325 43 q 277 -8 209 -8 q 149 -8 114 32 q 79 73 79 142 z"},"o":{"x_min":0,"x_max":386,"ha":386,"o":"m 55 113 q 55 121 57 137 l 84 364 q 92 427 134 468 q 177 509 236 509 q 290 509 322 475 q 353 441 353 386 q 353 372 352 364 l 324 137 q 316 73 274 32 q 232 -8 173 -8 q 119 -8 87 26 q 55 59 55 113 z m 295 137 l 323 364 q 324 371 324 384 q 324 428 300 454 q 275 481 233 481 q 186 481 153 448 q 120 416 114 364 l 86 137 q 85 130 85 117 q 85 73 110 46 q 134 20 176 20 q 223 20 256 52 q 289 85 295 137 z"},"N":{"x_min":0,"x_max":467,"ha":467,"o":"m 429 700 l 439 700 q 448 700 448 690 l 364 10 q 362 0 353 0 l 340 0 q 331 0 330 8 l 176 618 q 175 621 173 620 q 171 620 171 617 l 96 10 q 96 6 93 3 q 90 0 85 0 l 76 0 q 71 0 68 3 q 66 6 67 10 l 151 690 q 151 694 154 697 q 157 700 162 700 l 174 700 q 183 700 184 692 l 339 80 q 339 77 341 78 q 343 78 344 81 l 418 690 q 419 694 422 697 q 425 700 429 700 z"},"+":{"x_min":0,"x_max":430,"ha":430,"o":"m 415 326 l 415 320 q 413 310 404 310 l 250 310 q 249 310 248 309 q 246 308 246 306 l 227 148 q 225 138 216 138 l 210 138 q 200 138 202 148 l 221 306 q 221 308 220 309 q 219 310 218 310 l 64 310 q 54 310 56 320 l 57 326 q 57 330 60 333 q 63 336 67 336 l 221 336 q 225 336 225 340 l 244 498 q 245 502 248 505 q 251 508 255 508 l 261 508 q 270 508 270 498 l 250 340 q 250 336 254 336 l 407 336 q 417 336 415 326 z"},"G":{"x_min":0,"x_max":428,"ha":428,"o":"m 63 122 q 63 138 64 146 l 115 554 q 123 624 169 666 q 215 708 281 708 q 341 708 376 673 q 412 638 412 579 q 412 571 410 553 l 405 508 q 403 498 394 498 l 384 498 q 374 498 376 508 l 381 555 q 382 562 382 576 q 382 624 354 652 q 326 680 277 680 q 224 680 188 646 q 151 611 144 555 l 93 145 q 92 138 92 125 q 92 77 120 48 q 148 20 196 20 q 250 20 287 54 q 324 89 331 145 l 351 304 q 351 308 347 308 l 247 308 q 243 308 240 311 q 238 314 239 318 l 240 325 q 240 329 243 332 q 246 335 251 335 l 374 335 q 384 335 382 325 l 360 146 q 352 76 306 34 q 260 -8 193 -8 q 133 -8 98 28 q 63 63 63 122 z"},"q":{"x_min":0,"x_max":404,"ha":404,"o":"m 348 501 l 357 501 q 362 501 364 498 q 367 495 366 491 l 282 -189 q 282 -193 279 -196 q 276 -199 271 -199 l 262 -199 q 253 -199 253 -189 l 282 47 q 283 50 282 50 q 280 50 278 48 q 258 21 230 6 q 202 -8 170 -8 q 117 -8 86 25 q 55 58 55 112 q 55 119 57 137 l 84 364 q 92 428 134 468 q 175 509 233 509 q 266 509 290 494 q 314 480 327 453 q 329 451 330 451 q 332 451 332 454 l 337 491 q 337 495 340 498 q 343 501 348 501 z m 293 137 l 321 364 q 322 371 322 385 q 322 428 298 454 q 274 481 234 481 q 187 481 154 448 q 120 416 114 364 l 86 137 q 85 130 85 117 q 85 73 110 46 q 135 20 177 20 q 222 20 254 52 q 287 85 293 137 z"},"d":{"x_min":0,"x_max":397,"ha":397,"o":"m 372 700 l 382 700 q 392 700 390 690 l 307 10 q 305 0 296 0 l 286 0 q 276 0 278 10 l 282 47 q 283 50 282 50 q 280 50 278 48 q 258 21 230 6 q 202 -8 170 -8 q 117 -8 86 25 q 55 58 55 112 q 55 119 57 137 l 84 364 q 92 428 134 468 q 175 509 233 509 q 266 509 290 494 q 314 480 327 453 q 329 451 330 451 q 332 451 332 454 l 361 690 q 363 700 372 700 z m 293 137 l 321 364 q 322 371 322 385 q 322 428 298 454 q 274 481 234 481 q 187 481 154 448 q 120 416 114 364 l 86 137 q 85 130 85 117 q 85 73 110 46 q 135 20 177 20 q 222 20 254 52 q 287 85 293 137 z"},"1":{"x_min":0,"x_max":232,"ha":232,"o":"m 206 700 l 219 700 q 229 700 227 690 l 144 10 q 142 0 133 0 l 123 0 q 113 0 115 10 l 194 656 q 194 662 190 659 l 84 609 q 82 608 78 608 q 74 608 72 614 l 69 621 l 69 623 q 69 630 76 635 l 193 697 q 198 700 206 700 z"},"5":{"x_min":0,"x_max":380,"ha":380,"o":"m 348 277 q 348 251 343 211 q 337 159 323 116 q 282 -8 178 -8 q 125 -8 96 24 q 66 57 63 121 l 64 151 q 64 161 74 161 l 84 161 q 93 161 93 151 q 93 146 92 139 q 92 132 93 123 q 100 20 182 20 q 258 20 293 116 q 308 156 314 211 q 318 240 318 272 q 318 297 315 318 q 300 401 229 401 q 145 401 114 314 q 111 305 102 305 l 92 305 q 83 305 83 315 l 129 690 q 131 700 140 700 l 372 700 q 381 700 381 690 l 380 682 q 379 678 376 675 q 373 672 369 672 l 160 672 q 156 672 156 668 l 119 373 q 118 370 120 370 q 122 369 123 372 q 163 429 236 429 q 281 429 308 403 q 336 377 344 327 q 348 297 348 277 z"}}}
